<svg width="219" height="269" viewBox="0 0 219 269" fill="none" xmlns="http://www.w3.org/2000/svg">
<path d="M203.743 6.68719C201.334 10.2983 198.524 13.3744 197.721 13.3744C196.784 13.3744 195.981 14.5781 195.981 16.0493C195.981 18.3229 195.58 18.5904 193.305 17.3867C191.966 16.5842 191.03 15.2468 191.431 14.1768C191.832 13.2406 191.03 11.1007 189.557 9.36206C187.55 6.95468 186.345 6.55344 182.866 7.3559C180.591 7.75714 177.513 9.62955 176.308 11.2345C172.427 16.0493 170.553 16.5842 168.412 13.5081C167.342 11.9032 165.736 10.6995 165.066 10.6995C163.059 10.6995 161.988 14.8456 163.728 16.0493C164.933 16.718 164.799 17.6542 163.059 19.3929C161.319 21.1315 159.312 21.5328 154.895 20.9978C148.204 20.3291 148.471 22.2015 155.163 23.5389C158.509 24.0739 160.918 23.6727 163.193 22.2015C166.539 20.0616 167.877 14.7118 165.066 14.7118C164.397 14.7118 164.13 14.0431 164.531 13.3744C166.003 10.967 167.877 13.3744 167.877 17.3867C167.877 22.2015 164.13 24.8763 155.966 25.8126C152.62 26.2138 150.747 26.08 151.683 25.4113C153.022 24.6089 152.888 24.2076 150.747 23.5389C149.274 23.0039 147.267 21.8002 146.33 20.5965C144.992 18.9916 145.126 18.8579 146.866 19.5266C149.944 20.5965 152.62 15.2468 150.345 12.4382C148.739 10.6995 148.471 10.6995 146.999 12.7057C144.992 15.3805 142.449 14.3106 142.449 10.6995C142.449 8.69336 140.977 8.02463 134.821 7.22217C126.256 6.15222 121.438 8.02463 118.895 13.1069C116.754 17.5204 116.352 17.5204 116.218 13.2406C116.085 10.0308 111.401 4.14606 108.992 4.14606C106.583 4.14606 102.166 9.76331 101.899 13.2406C101.765 15.5143 101.497 17.3867 101.363 17.3867C101.229 17.3867 100.025 15.5143 98.9543 13.3744C96.0101 7.75714 91.9951 6.15222 83.0285 7.22217C77.6753 7.8909 75.9355 8.69336 76.337 10.0308C76.7385 10.967 75.9355 12.4382 74.4634 13.2406C72.3221 14.3106 71.653 14.1768 70.9838 12.5719C70.3147 10.8333 69.7793 10.6995 68.1734 12.037C67.1027 12.9731 66.1659 14.3106 66.1659 14.9793C66.1659 17.1192 70.047 20.3291 71.5191 19.3929C72.1883 18.9916 72.8574 18.8579 72.8574 19.3929C72.8574 19.7941 70.85 21.2653 68.5749 22.7365C60.0097 27.9525 50.1063 24.8763 50.1063 17.253C50.1063 14.4443 50.7754 13.3744 52.5152 13.5081C53.8535 13.5081 54.1212 13.9094 53.1844 14.3106C50.374 15.3805 51.3108 19.9278 54.7903 22.2015C57.0655 23.6727 59.4744 24.0739 62.8202 23.5389C69.5117 22.2015 69.7793 20.3291 63.0878 20.9978C59.2067 21.399 56.664 20.9978 54.7903 19.3929C52.9167 17.9217 52.6491 16.9855 53.8535 16.5842C54.6565 16.183 55.4595 14.9793 55.4595 13.9094C55.4595 11.3682 50.5078 11.502 49.0356 14.0431C47.6973 16.5842 43.8163 15.3805 42.7456 12.1707C41.9426 9.62955 36.7233 6.68719 32.976 6.68719C29.3626 6.68719 26.8198 8.96085 26.686 12.3044C26.4183 18.1892 22.0019 21.6665 22.0019 16.0493C22.0019 14.5781 21.199 13.3744 20.2621 13.3744C19.1915 13.3744 17.3179 11.2345 15.8458 8.5596C13.5706 4.41354 12.9015 3.87857 9.28807 4.5473C3.93486 5.75098 2.99805 7.62341 4.06869 16.0493C4.47018 20.0616 4.87168 24.7426 4.73785 26.3475C4.73785 27.9525 5.67466 29.9586 7.01296 30.6273C8.75275 31.5635 8.88658 32.366 7.68211 33.5697C6.87913 34.3722 6.47764 35.8433 6.7453 36.7796C7.14679 37.7158 6.87913 38.9194 6.07615 39.4544C4.20252 40.5244 4.20252 54.1662 6.07615 57.9111C6.87913 59.516 9.15424 62.4584 11.0279 64.4645C12.9015 66.6044 14.106 68.2094 13.5706 68.2094C13.1691 68.2094 14.2398 69.8143 15.9796 71.6867C17.8532 73.6928 19.3253 76.234 19.3253 77.4377C19.3253 78.6414 18.2547 77.7052 16.6487 75.2978C15.1766 72.8904 12.5 70.6167 10.4925 70.0818C7.81594 69.413 7.41445 68.8781 8.88658 67.9418C10.2249 66.8719 10.2249 66.7382 8.61892 67.2731C5.54083 68.0756 5.27317 72.2217 8.35126 72.2217C11.9647 72.2217 15.3104 76.3677 16.2472 82.2524C17.0502 87.0672 16.9164 87.201 14.106 85.7298C10.4925 83.7236 7.81594 85.0611 10.0911 87.7359C11.5632 89.4746 11.2955 96.2955 9.28807 102.983C8.48509 105.791 8.75275 105.658 11.1617 102.047C15.3104 95.4931 24.6785 91.6145 24.6785 96.4293C24.6785 97.098 23.2064 97.3655 21.6005 96.9643C19.0577 96.2955 17.4517 97.2318 14.2398 100.977C11.8308 103.518 9.95722 106.326 9.95722 107.129C9.95722 107.931 9.4219 108.065 8.61892 107.664C6.07615 106.059 7.14679 117.561 9.82339 120.236C12.3662 122.777 12.3662 122.777 9.4219 123.579C5.80849 124.515 -1.95367 135.349 0.455278 136.151C1.25826 136.419 1.92741 137.489 1.92741 138.559C1.92741 139.629 2.59656 140.431 3.26571 140.431C4.06869 140.431 4.60401 141.367 4.60401 142.437C4.60401 143.641 6.47764 145.38 8.61892 146.316C12.6338 147.921 12.6338 147.921 9.95722 150.462C8.0836 152.2 7.28062 154.474 7.41445 158.353C7.41445 162.499 7.68211 163.167 8.48509 161.161C9.4219 158.754 9.68956 159.021 10.4925 162.766C11.8308 168.651 22.0019 177.211 22.0019 172.396C22.0019 171.727 22.6711 171.46 23.3402 171.861C25.7492 173.332 24.8124 175.204 21.7343 175.204C17.987 175.071 14.3736 172.53 10.894 167.581C9.28807 165.174 8.61892 164.772 9.28807 166.511C11.1617 171.861 11.5632 178.949 10.0911 181.49C8.48509 184.566 9.28807 186.038 11.9647 185.101C12.9015 184.7 13.5706 183.363 13.303 182.159C13.1691 180.955 13.303 180.688 13.5706 181.49C13.9721 182.427 14.7751 183.229 15.5781 183.229C17.4517 183.229 15.8458 190.852 13.1691 194.865C12.0985 196.603 10.2249 197.807 8.88658 197.673C7.68211 197.406 6.47764 198.342 6.20998 199.68C5.27317 203.959 14.2398 199.145 16.9164 193.795C18.2547 191.387 19.3253 190.317 19.3253 191.521C19.3253 192.725 17.987 195.4 16.3811 197.54C14.6413 199.546 12.5 202.488 11.5632 203.959C10.6264 205.431 8.75275 208.373 7.28062 210.647C3.6672 216.13 3.6672 226.963 7.28062 233.383C10.4925 239 10.4925 239.401 8.0836 239.401C5.54083 239.401 2.73039 242.879 4.47018 243.949C5.27317 244.484 5.27317 246.356 4.47018 249.165C2.86422 255.049 2.99805 260.8 5.00551 264.679C7.41445 269.628 8.88658 269.36 13.9721 262.807C16.5149 259.597 19.4592 256.922 20.396 256.788C21.199 256.788 22.0019 255.584 22.0019 254.113C22.0019 252.241 22.6711 251.706 24.1432 252.375C25.883 253.043 26.1507 252.642 25.3477 250.368C24.8124 248.362 25.08 247.426 26.1507 247.426C27.0875 247.426 27.3552 247.827 26.9537 248.362C26.4183 248.763 26.686 249.967 27.489 251.037C28.5596 252.107 28.5596 252.776 27.6228 252.776C25.7492 252.776 26.5522 258.928 28.8273 261.603C31.3701 264.679 37.7939 262.94 42.478 257.992C45.9576 254.113 46.359 253.979 48.6342 255.986C49.9725 257.189 52.1137 258.126 53.3182 258.126C55.1918 258.126 55.5933 257.457 54.9242 254.916C53.7197 250.368 56.9316 248.229 63.8908 249.165C68.1734 249.7 68.9763 249.566 67.1027 248.496C63.6231 246.624 55.861 246.757 53.452 248.763C51.0431 250.77 50.7754 254.916 53.1844 255.852C54.1212 256.253 53.7197 256.654 52.3814 256.654C50.374 256.788 49.9725 255.986 50.374 252.508C51.1769 244.082 63.4893 242.344 71.1176 249.7C73.2589 251.572 73.7942 252.375 72.4559 251.438C70.4485 249.967 69.6455 249.967 67.9057 251.84C66.5674 253.177 66.1659 254.782 66.8351 256.387C67.7719 258.661 67.9057 258.661 68.8425 256.119L70.047 253.445L70.1808 256.119C70.3147 257.591 70.7161 257.992 71.1176 257.189C72.0544 254.782 77.2738 257.724 76.337 260.132C75.9355 261.469 77.5415 262.138 82.7609 262.807C91.8613 264.01 95.2071 262.94 98.2852 257.858L100.694 253.846L101.497 257.724C102.032 259.73 103.906 262.539 105.78 263.877C108.858 266.15 109.125 266.15 112.204 263.877C115.549 261.335 117.691 256.253 116.352 254.113C115.817 253.311 115.817 252.776 116.218 252.776C116.62 252.776 117.958 254.648 119.029 256.788C121.973 262.405 125.988 264.01 134.955 262.94C140.308 262.272 142.048 261.469 141.646 260.132C141.245 259.196 142.181 257.724 143.654 256.788C145.795 255.718 146.464 255.718 146.598 257.056C146.598 257.992 147.133 257.591 147.802 256.119C148.873 253.578 149.007 253.578 149.007 255.986C149.141 257.992 149.542 258.259 150.747 257.056C151.817 255.986 151.817 255.049 150.479 253.445C148.204 250.636 150.613 248.763 156.501 248.763C162.524 248.763 164.933 250.77 162.925 253.979C162.122 255.317 161.721 256.922 162.122 257.323C163.728 258.928 167.743 258.126 169.081 255.852C170.286 253.712 170.821 253.846 174.435 257.724C180.055 263.475 186.345 264.813 189.557 260.8C190.896 259.196 191.565 257.323 191.163 256.654C190.36 255.183 192.903 251.438 194.777 251.438C195.446 251.438 195.981 252.642 195.981 254.113C195.981 255.584 196.784 256.788 197.721 256.788C199.595 256.788 201.87 260.399 203.342 265.749C204.546 270.162 207.357 269.494 211.372 264.144C214.45 260.132 214.851 258.794 214.048 253.846C213.513 250.636 213.111 246.49 213.111 244.484C213.111 242.076 212.309 240.605 210.569 240.07C207.892 239.134 207.357 237.796 209.097 236.192C209.632 235.657 210.033 234.72 210.033 234.319C210.167 233.784 211.104 231.511 212.309 229.371C214.316 225.626 214.316 222.951 212.576 214.391C212.309 212.653 210.167 209.309 207.892 206.634C205.617 204.093 204.413 201.953 205.082 201.953C205.885 201.953 204.68 200.214 202.539 198.075C200.398 195.935 198.658 193.394 198.658 192.324C198.792 191.387 199.595 192.19 200.799 194.196C202.673 197.807 210.301 202.889 211.639 201.418C213.111 199.947 210.703 196.737 208.829 197.406C207.491 197.941 205.885 196.603 204.011 193.661C200.799 188.311 200.665 185.101 203.476 182.293C205.349 180.287 205.483 180.42 205.082 182.56C204.814 183.898 205.349 185.235 206.152 185.503C206.955 185.77 207.624 183.095 207.624 178.281C207.892 166.11 208.427 160.626 209.632 161.295C210.167 161.696 210.703 160.091 210.703 157.818C210.703 154.742 209.498 152.468 206.688 149.793C203.743 146.984 203.342 146.182 205.215 146.717C208.16 147.519 213.379 144.978 213.379 142.838C213.379 141.902 214.584 139.896 216.19 138.291L219 135.349L215.788 130.534C214.048 127.859 211.104 124.917 209.097 124.114L205.617 122.509L208.16 119.299C210.703 115.956 211.773 106.193 209.364 107.664C208.695 108.065 207.223 106.728 206.152 104.721C203.342 99.1042 199.193 95.8943 195.981 96.6968C193.305 97.3655 192.234 95.7606 194.643 94.2894C196.784 92.952 203.476 97.2318 206.554 101.913C208.963 105.524 209.364 105.658 208.427 102.983C207.892 101.11 207.357 96.1618 207.491 91.882C207.491 87.0672 206.955 84.3923 206.152 84.6598C205.349 84.9273 204.814 86.2648 205.082 87.6022C205.483 89.7421 205.349 89.8758 203.476 87.8697C200.665 85.0611 200.799 81.8512 204.011 76.5015C205.617 73.9603 207.758 72.2217 209.498 72.2217C212.576 72.2217 212.71 68.0756 209.632 67.4069C208.695 67.2731 208.561 67.4069 209.364 67.8081C210.167 68.2094 208.829 69.413 206.42 70.7505C204.011 71.9542 201.334 74.3616 200.398 76.234C199.327 78.2401 198.658 78.7751 198.658 77.4377C198.658 76.3677 200.13 73.9603 202.004 72.2217C203.743 70.6167 204.948 68.7443 204.68 68.2094C204.413 67.6744 205.617 65.9357 207.357 64.197C210.703 61.1209 212.576 56.5736 213.914 48.014C214.584 44.4029 214.048 42.3968 212.041 39.7219C210.033 37.3145 209.766 36.1108 210.97 35.7096C212.309 35.1746 212.309 34.9071 211.104 34.9071C208.695 34.7734 208.963 31.1623 211.506 30.2261C212.576 29.8249 213.379 28.3537 213.245 27.15C212.978 25.8126 213.379 21.399 213.914 17.253C214.851 9.36206 212.442 0 209.498 0C208.695 0 206.018 2.94235 203.743 6.68719ZM7.68211 11.1007C6.87913 16.3167 10.4925 21.5328 17.7194 25.5451C21.4666 27.4175 21.8681 27.9525 19.3253 27.4175C16.1134 26.615 16.1134 26.7488 19.7268 28.7549C24.2771 31.4298 24.4109 32.4997 19.8607 30.7611C11.2955 27.4175 5.94232 20.7303 5.94232 13.2406C5.94232 9.09457 6.7453 6.68719 8.0836 6.68719C8.35126 6.68719 8.0836 8.69336 7.68211 11.1007ZM92.2628 9.36206C92.6643 10.0308 91.8613 10.6995 90.3892 10.6995C88.9171 10.6995 86.3743 12.037 84.7683 13.6419L81.9579 16.718L83.5638 13.5081C85.1698 10.432 85.036 10.432 81.4226 11.1007L77.5415 11.9032L81.5564 10.0308C86.3743 7.75714 91.0583 7.48965 92.2628 9.36206ZM136.427 10.1645L140.442 12.037L136.427 11.2345C133.215 10.6995 132.68 10.8333 134.152 12.1707C137.096 15.2468 135.758 16.5842 132.68 13.6419C130.94 12.037 128.129 10.6995 126.256 10.6995C123.713 10.6995 123.445 10.432 125.051 9.36206C127.862 7.48965 131.743 7.75714 136.427 10.1645ZM212.041 13.6419C212.041 20.7303 205.215 28.6212 196.65 31.5635L193.974 32.4997L196.65 30.2261C198.925 28.2199 198.925 27.9525 197.052 28.6212C192.903 29.8249 194.375 28.2199 199.862 25.4113C207.089 21.8002 211.104 16.4505 210.167 11.6357C209.632 9.36206 209.9 8.15839 210.703 8.69336C211.506 9.09457 212.041 11.3682 212.041 13.6419ZM14.7751 18.9916C15.5781 20.3291 15.3104 20.3291 13.5706 18.8579C12.3662 17.9217 11.2955 15.5143 11.4294 13.5081L11.5632 10.0308L12.6338 13.6419C13.1691 15.5143 14.106 17.9217 14.7751 18.9916ZM36.9909 13.9094C38.0616 15.9155 37.7939 16.183 35.2511 15.7818C33.6452 15.5143 32.173 14.4443 31.9054 13.2406C31.5039 10.2983 35.2511 10.8333 36.9909 13.9094ZM107.653 15.3805C107.653 16.0493 106.984 15.7818 106.315 14.7118C105.646 13.6419 104.977 12.037 104.977 11.3682C104.977 10.5658 105.646 10.967 106.315 12.037C106.984 13.1069 107.653 14.5781 107.653 15.3805ZM185.944 13.2406C185.81 14.4443 184.472 15.3805 182.866 15.5143C180.591 15.648 180.323 15.2468 181.528 13.3744C183.401 10.5658 186.479 10.432 185.944 13.2406ZM206.688 13.1069C206.688 14.4443 205.885 16.718 204.814 18.1892C203.074 20.4628 203.074 20.1953 204.413 15.648C206.152 10.1645 206.688 9.49582 206.688 13.1069ZM69.7793 14.9793C69.3778 16.0493 68.9763 15.648 68.9763 14.1768C68.8425 12.7057 69.244 11.9032 69.6455 12.4382C70.047 12.8394 70.1808 14.0431 69.7793 14.9793ZM112.07 14.0431C111.668 15.2468 110.999 15.9155 110.731 15.5143C110.33 15.1131 110.464 14.3106 110.999 13.5081C112.204 11.3682 113.006 11.7695 112.07 14.0431ZM79.5489 16.183C78.6121 17.6542 78.3445 20.5965 78.746 22.469C79.2813 24.8763 79.1474 25.4113 78.4783 24.3414C77.4077 22.8702 77.14 22.8702 76.4708 24.6089C75.9355 25.8126 74.731 26.7488 73.5266 26.7488C71.9206 26.7488 72.0544 26.2138 74.1957 24.0739C75.6679 22.6027 76.8723 20.3291 76.8723 18.9916C76.8723 17.6542 77.5415 15.9155 78.4783 14.9793C80.8872 12.5719 81.1549 12.9731 79.5489 16.183ZM141.111 19.6603C141.111 20.5965 142.315 22.6027 143.787 24.0739C145.929 26.2138 146.063 26.7488 144.457 26.7488C143.252 26.7488 142.048 25.8126 141.512 24.6089C140.843 22.8702 140.442 22.8702 139.505 24.3414C138.568 25.5451 138.434 24.8763 138.97 22.3352C139.505 20.3291 139.237 17.3867 138.434 15.648C136.962 12.8394 136.962 12.8394 138.97 15.2468C140.174 16.718 141.111 18.7241 141.111 19.6603ZM105.512 16.8517C105.913 17.9217 105.78 18.4566 104.977 18.0554C104.174 17.6542 103.638 16.718 103.638 15.9155C103.638 14.0431 104.575 14.4443 105.512 16.8517ZM22.5373 22.6027L25.3477 25.8126L22.5373 24.3414C19.593 22.8702 17.8532 19.9278 18.1209 16.9855C18.1209 16.0493 18.5224 16.3167 18.9238 17.3867C19.3253 18.4566 20.9313 20.864 22.5373 22.6027ZM97.3484 16.9855C96.4115 17.253 94.5379 17.253 93.3335 16.9855C91.9951 16.5842 92.7981 16.3167 94.9394 16.3167C97.2145 16.3167 98.1513 16.5842 97.3484 16.9855ZM125.453 16.9855C124.516 17.253 122.642 17.253 121.438 16.9855C120.099 16.5842 120.902 16.3167 123.044 16.3167C125.319 16.3167 126.256 16.5842 125.453 16.9855ZM196.517 22.6027L192.769 26.08L195.714 22.6027C197.32 20.7303 198.658 18.3229 198.792 17.253C198.792 15.7818 199.059 15.7818 199.595 17.253C199.996 18.1892 198.658 20.5965 196.517 22.6027ZM27.7566 20.1953C27.2213 21.934 26.5522 22.469 25.7492 21.6665C24.2771 20.1953 25.3477 17.3867 27.3552 17.3867C27.8905 17.3867 28.1581 18.5904 27.7566 20.1953ZM38.4631 18.8579C36.0541 19.5266 33.2437 21.399 32.0392 23.0039C30.4332 25.4113 30.0318 25.5451 30.0318 23.8064C30.0318 20.864 35.1173 17.3867 39.3999 17.5204C42.478 17.6542 42.3441 17.7879 38.4631 18.8579ZM183 18.5904C184.739 19.2591 186.613 20.864 187.148 22.2015C188.085 24.4751 187.951 24.4751 185.542 22.2015C184.07 20.9978 181.126 19.3929 179.119 18.7241C176.977 18.1892 176.308 17.5204 177.513 17.5204C178.717 17.3867 181.26 17.9217 183 18.5904ZM191.832 19.2591C192.769 20.3291 192.903 21.5328 192.234 21.934C191.431 22.3352 190.628 21.5328 190.227 20.0616C189.424 16.8517 189.691 16.718 191.832 19.2591ZM97.616 20.0616C98.6867 21.8002 96.9469 21.8002 94.2703 20.0616C92.5305 18.9916 92.5305 18.7241 94.5379 18.7241C95.7424 18.7241 97.2145 19.2591 97.616 20.0616ZM123.713 20.0616C121.036 21.8002 119.297 21.8002 120.367 20.0616C120.769 19.2591 122.241 18.7241 123.445 18.7241C125.453 18.7241 125.453 18.9916 123.713 20.0616ZM88.9171 21.399C88.9171 22.0677 87.7126 22.7365 86.2404 22.7365C84.7683 22.7365 83.5638 22.0677 83.5638 21.399C83.5638 20.5965 84.7683 20.0616 86.2404 20.0616C87.7126 20.0616 88.9171 20.5965 88.9171 21.399ZM133.75 21.399C133.349 22.0677 132.01 22.7365 130.94 22.7365C129.869 22.7365 129.066 22.0677 129.066 21.399C129.066 20.5965 130.271 20.0616 131.877 20.0616C133.349 20.0616 134.152 20.5965 133.75 21.399ZM41.9426 21.8002C41.675 21.934 40.2029 23.0039 38.7307 24.0739C36.1879 25.9463 36.1879 25.9463 37.9277 23.6727C38.8646 22.469 40.3367 21.399 41.1397 21.399C41.9426 21.399 42.2103 21.5328 41.9426 21.8002ZM180.055 23.6727C181.661 25.8126 181.661 25.9463 179.922 24.6089C178.851 23.8064 176.977 22.7365 175.907 22.3352C174.167 21.6665 174.301 21.5328 176.041 21.5328C177.245 21.399 179.119 22.469 180.055 23.6727ZM50.6416 26.2138C54.9242 27.8187 52.6491 29.4236 46.0914 29.4236C42.478 29.4236 39.3999 28.8887 39.3999 28.2199C39.3999 25.8126 46.4929 24.6089 50.6416 26.2138ZM95.0732 27.4175C97.3484 29.1562 96.9469 29.2899 89.72 29.4236C82.8947 29.4236 82.0917 29.1562 83.5638 27.4175C85.7051 24.8763 91.5937 24.8763 95.0732 27.4175ZM134.419 27.4175C135.891 29.1562 134.955 29.4236 127.594 29.4236C119.43 29.2899 119.163 29.2899 122.375 27.4175C126.791 24.8763 132.278 24.8763 134.419 27.4175ZM177.245 27.4175C178.717 29.1562 177.914 29.4236 171.892 29.4236C165.869 29.4236 165.066 29.1562 166.539 27.4175C167.475 26.3475 169.884 25.4113 171.892 25.4113C173.899 25.4113 176.308 26.3475 177.245 27.4175ZM10.894 28.8887C10.4925 29.2899 9.28807 29.4236 8.35126 29.0224C7.28062 28.6212 7.68211 28.2199 9.15424 28.2199C10.6264 28.0862 11.4294 28.4874 10.894 28.8887ZM210.301 28.8887C209.9 29.2899 208.695 29.4236 207.758 29.0224C206.688 28.6212 207.089 28.2199 208.561 28.2199C210.033 28.0862 210.836 28.4874 210.301 28.8887ZM186.613 135.081V238.064H108.992H31.3701V135.081V32.0985H108.992H186.613V135.081ZM22.0019 35.7096C14.106 36.9133 12.5 37.7158 10.4925 41.7281C8.75275 45.0717 8.61892 46.5428 9.82339 48.4153C11.697 51.3576 11.697 52.5613 9.95722 51.4914C8.0836 50.2877 8.35126 51.6251 10.7602 56.3061C11.8308 58.5798 12.6338 60.7197 12.2323 60.9872C11.0279 62.1909 7.01296 54.3 6.34381 49.3515C5.67466 44.8042 6.20998 43.6005 10.3587 39.4544C14.2398 35.5759 15.9796 34.7734 20.2621 34.9071C23.6079 35.0409 24.1432 35.3084 22.0019 35.7096ZM206.554 38.2507C211.773 42.5305 213.111 48.9502 210.033 55.3699C208.829 57.9111 206.821 60.8534 205.751 61.7896C204.279 62.9933 204.413 61.9234 206.554 57.9111C210.033 51.0901 210.033 49.8864 207.089 52.2938C204.814 54.0325 204.814 54.0325 207.089 50.5552C208.294 48.549 209.364 46.0079 209.364 45.0717C209.364 41.5943 202.673 36.2446 197.587 35.7096L192.635 35.1746L197.587 35.0409C201.067 34.7734 203.61 35.7096 206.554 38.2507ZM15.3104 41.4606C13.8383 42.9318 12.2323 44.1355 11.697 44.1355C11.2955 44.1355 11.9647 42.9318 13.303 41.4606C14.6413 39.9894 16.2472 38.7857 16.9164 38.7857C17.4517 38.7857 16.7826 39.9894 15.3104 41.4606ZM204.011 40.7919C206.554 43.7342 205.082 44.1355 202.405 41.1931C201.067 39.8557 200.531 38.7857 201.201 38.7857C201.87 38.7857 203.074 39.7219 204.011 40.7919ZM20.9313 43.0655C19.9945 44.0017 19.3253 47.3453 19.3253 50.6889C19.3253 55.2362 18.9238 56.3061 17.987 54.835C17.3179 53.765 16.6487 51.6251 16.6487 50.1539C16.6487 47.3453 20.1283 41.4606 21.7343 41.4606C22.1358 41.4606 21.8681 42.1293 20.9313 43.0655ZM200.398 50.0202C200.531 52.6951 199.996 55.3699 199.193 56.1724C198.39 56.9749 198.123 55.6374 198.39 52.2938C198.658 49.4852 198.123 45.7404 197.32 44.0017C195.714 41.0594 195.847 40.9256 197.989 42.9318C199.193 44.1355 200.264 47.3453 200.398 50.0202ZM27.3552 57.3761C27.3552 69.413 27.0875 70.6167 24.6785 71.2854C22.6711 71.8204 21.7343 71.018 20.7975 67.8081C20.1283 65.4007 19.1915 62.4584 18.6562 61.1209C17.8532 59.3822 18.3885 58.8473 20.6636 58.8473C23.4741 58.8473 23.6079 58.446 22.8049 52.4276C22.0019 45.7404 22.5373 44.1355 25.6154 44.1355C26.9537 44.1355 27.3552 47.2116 27.3552 57.3761ZM194.911 51.8926C194.509 58.3123 194.643 58.8473 197.32 58.8473C199.595 58.8473 200.13 59.3822 199.327 61.1209C198.792 62.4584 197.721 65.267 196.918 67.5406C195.178 72.7566 195.312 72.6229 192.1 70.8842C189.691 69.6805 189.29 68.2094 189.29 60.9872C189.29 49.084 190.494 43.868 193.171 44.4029C194.911 44.8042 195.178 46.2754 194.911 51.8926ZM18.5224 66.8719L19.4592 70.2155L17.4517 66.8719C15.1766 63.1271 14.6413 60.1847 16.5149 62.1909C17.1841 62.9933 18.1209 64.9995 18.5224 66.8719ZM201.736 63.5283C201.334 64.732 200.665 65.4007 200.398 64.9995C199.996 64.5983 200.13 63.7958 200.665 62.9933C201.87 60.8534 202.673 61.2547 201.736 63.5283ZM23.7417 75.5652C23.3402 76.769 22.6711 77.4377 22.4034 77.0364C22.0019 76.6352 22.1358 75.8327 22.6711 75.0303C23.8756 72.8904 24.6785 73.2916 23.7417 75.5652ZM19.8607 85.4623C19.3253 87.7359 18.6562 89.4746 18.3885 89.0734C17.987 88.8059 18.1209 86.5322 18.6562 84.2586C19.8607 78.7751 20.9313 79.8451 19.8607 85.4623ZM198.256 83.1886C197.855 84.2586 197.453 83.8574 197.453 82.3862C197.32 80.915 197.721 80.1125 198.123 80.6475C198.524 81.0488 198.658 82.2524 198.256 83.1886ZM24.4109 85.7298C24.2771 88.0034 23.4741 90.1433 22.8049 90.5446C22.1358 90.9458 22.0019 90.6783 22.5373 89.8758C22.9388 89.2071 22.8049 88.2709 22.1358 88.0034C20.9313 87.6022 22.6711 81.5837 24.0094 81.5837C24.4109 81.5837 24.5447 83.4561 24.4109 85.7298ZM195.446 86.9335C195.58 89.2071 195.312 90.6783 194.777 90.4108C194.241 90.0096 193.706 87.8697 193.572 85.4623C193.438 83.0549 193.706 81.45 194.241 81.985C194.777 82.5199 195.312 84.7936 195.446 86.9335ZM199.595 88.5384C199.193 89.6084 198.792 89.2071 198.792 87.7359C198.658 86.2648 199.059 85.4623 199.461 85.9973C199.862 86.3985 199.996 87.6022 199.595 88.5384ZM13.5706 89.8758C13.1691 90.9458 12.7677 90.5446 12.7677 89.0734C12.6338 87.6022 13.0353 86.7997 13.4368 87.3347C13.8383 87.7359 13.9721 88.9396 13.5706 89.8758ZM27.3552 99.7729C27.3552 100.843 26.686 101.378 26.0168 100.977C25.2139 100.442 24.9462 99.5054 25.3477 98.8367C26.5522 96.9643 27.3552 97.3655 27.3552 99.7729ZM192.635 98.8367C193.037 99.5054 192.769 100.442 191.966 100.977C191.297 101.378 190.628 100.843 190.628 99.7729C190.628 97.3655 191.431 96.9643 192.635 98.8367ZM23.8756 101.512C24.2771 102.047 23.0726 102.314 21.3328 101.913C19.4592 101.645 17.987 101.11 17.987 100.843C17.987 99.7729 23.2064 100.308 23.8756 101.512ZM199.996 100.843C199.996 101.11 198.524 101.645 196.65 101.913C194.911 102.314 193.706 102.047 194.108 101.512C194.777 100.308 199.996 99.7729 199.996 100.843ZM27.3552 117.962V130.266L24.4109 127.458C22.6711 125.719 21.6005 122.911 21.6005 120.369C21.6005 117.427 21.0651 116.491 19.7268 116.892C17.4517 117.828 17.4517 114.083 19.7268 109.269C20.7975 106.995 22.4034 105.658 24.4109 105.658C27.2213 105.658 27.3552 106.059 27.3552 117.962ZM198.39 109.269C200.531 113.95 200.398 116.357 198.123 116.357C197.052 116.357 196.383 117.695 196.383 119.701C196.383 121.573 195.178 124.649 193.84 126.655L191.431 130.4L190.494 127.057C189.29 122.643 189.022 107.664 190.227 106.594C192.368 104.454 196.784 105.925 198.39 109.269ZM14.9089 108.466C13.5706 109.269 11.9647 111.141 11.2955 112.746C10.4925 114.886 10.0911 115.153 10.0911 113.415C9.95722 110.874 13.4368 106.995 15.7119 106.995C16.6487 106.995 16.2472 107.664 14.9089 108.466ZM205.349 109.001C207.892 111.944 206.42 112.345 203.743 109.402C202.405 108.065 201.87 106.995 202.539 106.995C203.208 106.995 204.413 107.931 205.349 109.001ZM16.6487 121.038C16.6487 121.707 15.9796 121.439 15.3104 120.369C14.6413 119.299 13.9721 117.695 13.9721 117.026C13.9721 116.223 14.6413 116.625 15.3104 117.695C15.9796 118.764 16.6487 120.236 16.6487 121.038ZM202.807 119.433C201.468 120.637 201.334 120.503 202.137 118.631C202.539 117.293 203.342 116.625 203.743 117.026C204.145 117.427 203.743 118.497 202.807 119.433ZM17.987 126.522C17.987 127.592 17.4517 128.127 16.6487 127.725C15.9796 127.324 15.3104 126.388 15.3104 125.585C15.3104 124.917 15.9796 124.382 16.6487 124.382C17.4517 124.382 17.987 125.318 17.987 126.522ZM201.736 128.127C200.933 130.133 201.201 130.133 203.743 127.859C205.349 126.388 206.688 125.987 206.688 126.655C206.688 129.063 203.208 131.203 200.799 130.266C199.193 129.731 198.925 128.929 199.996 127.725C200.665 126.923 200.799 125.585 200.264 125.05C199.728 124.382 199.996 124.382 200.933 124.917C201.87 125.452 202.137 126.789 201.736 128.127ZM13.9721 129.063C15.8458 131.604 15.8458 131.604 13.7045 129.865C12.3662 128.929 11.2955 127.458 11.2955 126.655C11.2955 125.853 11.4294 125.585 11.697 125.853C11.8308 126.12 12.9015 127.592 13.9721 129.063ZM195.981 128.929C195.981 129.197 194.911 130.266 193.706 131.203C191.565 132.941 191.431 132.808 193.171 130.668C194.911 128.528 195.981 127.859 195.981 128.929ZM11.8308 131.738C14.2398 133.476 14.106 133.61 10.894 134.413C8.88658 134.948 6.61147 135.081 5.67466 134.68C4.73785 134.279 5.67466 133.878 7.81594 133.878C11.5632 133.744 11.697 133.61 9.15424 131.738C7.81594 130.668 7.28062 129.865 7.94977 129.865C8.75275 129.865 10.3587 130.668 11.8308 131.738ZM208.829 131.738C206.286 133.61 206.42 133.744 210.167 133.878C212.309 133.878 213.245 134.279 212.309 134.68C211.372 135.081 209.097 134.948 207.089 134.413C203.877 133.61 203.743 133.476 206.152 131.738C207.624 130.668 209.364 129.865 210.033 129.865C210.836 129.865 210.167 130.668 208.829 131.738ZM26.0168 134.279C26.0168 134.68 25.4815 135.349 24.6785 135.75C24.0094 136.151 23.3402 135.884 23.3402 135.215C23.3402 134.413 24.0094 133.744 24.6785 133.744C25.4815 133.744 26.0168 134.011 26.0168 134.279ZM12.6338 137.087C12.6338 137.355 11.2955 138.425 9.68956 139.227C6.87913 140.698 6.7453 140.698 8.48509 138.692C10.2249 136.552 12.6338 135.616 12.6338 137.087ZM208.695 137.756C209.766 139.495 208.026 139.495 205.349 137.756C203.61 136.686 203.61 136.419 205.617 136.419C206.821 136.419 208.294 136.954 208.695 137.756ZM18.5224 138.96C19.593 140.565 18.1209 144.443 16.5149 144.443C15.7119 144.443 15.8458 143.24 16.6487 141.768C18.3885 138.692 16.3811 138.157 13.9721 141.1C13.0353 142.303 11.9647 142.838 11.5632 142.437C10.7602 141.768 15.1766 137.89 16.9164 137.756C17.4517 137.756 18.1209 138.291 18.5224 138.96ZM204.68 140.431C208.16 144.176 206.688 144.577 203.074 140.832C201.468 139.094 200.531 137.756 201.201 137.756C201.736 137.756 203.342 138.96 204.68 140.431ZM27.3552 151.799C27.3552 160.626 26.9537 163.034 25.2139 163.702C21.8681 165.04 21.199 164.639 19.593 161.161C17.4517 156.347 17.5855 153.805 20.1283 153.805C21.4666 153.805 21.8681 153.003 21.4666 151.398C21.0651 150.194 21.6005 147.386 22.6711 145.246C25.08 140.698 25.2139 140.03 23.0726 141.233C22.1358 141.768 22.0019 141.635 22.5373 140.698C23.0726 139.896 24.2771 139.495 25.3477 140.03C26.9537 140.565 27.3552 143.24 27.3552 151.799ZM195.981 149.526C195.981 153.003 196.383 153.939 197.989 153.27C200.398 152.334 200.531 154.207 198.39 160.091C196.784 164.505 195.446 165.174 191.431 163.702C189.156 162.766 188.487 152.869 190.093 144.577C190.896 140.565 191.163 140.431 193.438 142.571C195.044 143.908 195.981 146.717 195.981 149.526ZM201.334 143.106C201.334 144.577 201.067 145.781 200.799 145.781C200.531 145.781 199.996 144.577 199.595 143.106C199.193 141.635 199.461 140.431 200.13 140.431C200.799 140.431 201.334 141.635 201.334 143.106ZM15.4443 152.067C13.8383 154.742 13.5706 153.939 14.7751 150.462C15.3104 149.258 15.9796 148.589 16.2472 148.991C16.6487 149.258 16.2472 150.729 15.4443 152.067ZM15.0428 161.429C16.2472 162.365 16.5149 163.167 15.5781 163.167C13.9721 163.167 9.95722 157.951 9.95722 155.812C9.95722 155.143 10.7602 155.678 11.5632 157.149C12.3662 158.62 13.9721 160.626 15.0428 161.429ZM205.349 161.161C204.413 162.231 204.145 163.167 204.68 163.167C205.215 163.167 204.948 164.104 204.011 165.174C203.074 166.244 201.602 167.18 200.799 167.18C199.996 167.18 200.531 166.244 201.87 165.174C204.546 163.167 204.546 163.167 201.87 163.034C199.595 163.034 199.728 162.9 202.405 161.83C204.011 161.161 205.349 159.824 205.349 159.021C205.349 158.085 205.751 157.818 206.152 158.219C206.688 158.754 206.286 159.958 205.349 161.161ZM16.6487 165.842C16.6487 166.511 16.3811 167.18 16.1134 167.18C15.7119 167.18 15.0428 166.511 14.6413 165.842C14.2398 165.04 14.5075 164.505 15.1766 164.505C15.9796 164.505 16.6487 165.04 16.6487 165.842ZM204.011 170.523C199.862 174.803 193.305 176.943 193.305 174.001C193.305 173.332 194.509 173.064 195.981 173.466C197.989 174.001 199.996 172.797 203.074 169.453C205.349 166.912 207.624 165.04 207.892 165.307C208.294 165.709 206.42 167.982 204.011 170.523ZM27.3552 171.058C27.2213 172.931 27.0875 172.931 25.6154 171.192C24.6785 170.122 22.5373 169.32 20.6636 169.453L17.3179 169.721L20.6636 168.651C24.9462 167.314 27.3552 168.25 27.3552 171.058ZM197.453 169.587C196.517 169.855 195.044 169.453 194.375 168.785C193.305 167.715 193.84 167.581 196.115 168.116C197.855 168.651 198.524 169.186 197.453 169.587ZM192.502 171.326C192.1 171.995 191.163 172.262 190.494 171.727C189.825 171.326 189.557 170.39 190.093 169.721C190.494 169.052 191.431 168.785 192.1 169.32C192.769 169.721 193.037 170.657 192.502 171.326ZM24.1432 184.566C24.2771 186.84 24.0094 188.311 23.3402 187.91C21.7343 186.974 20.7975 181.892 22.2696 181.892C22.9388 181.892 23.0726 181.089 22.5373 180.153C22.0019 179.35 22.1358 179.083 22.6711 179.618C23.3402 180.153 24.0094 182.427 24.1432 184.566ZM195.714 183.229C195.847 185.369 195.446 187.241 194.911 187.241C193.974 187.241 193.706 181.49 194.509 179.484C195.044 178.414 195.446 179.752 195.714 183.229ZM18.9238 183.497C18.5224 184.566 18.1209 184.165 18.1209 182.694C17.987 181.223 18.3885 180.42 18.79 180.955C19.1915 181.357 19.3253 182.56 18.9238 183.497ZM198.256 188.846C197.855 189.916 197.453 189.515 197.453 188.044C197.32 186.573 197.721 185.77 198.123 186.305C198.524 186.706 198.658 187.91 198.256 188.846ZM23.8756 194.731C24.2771 195.801 24.1432 196.336 23.3402 195.935C22.5373 195.533 22.0019 194.597 22.0019 193.795C22.0019 191.922 22.9388 192.324 23.8756 194.731ZM194.777 195.667C193.438 196.871 193.305 196.737 194.108 194.865C194.509 193.527 195.312 192.859 195.714 193.26C196.115 193.661 195.714 194.731 194.777 195.667ZM25.2139 198.743C26.9537 199.412 27.3552 201.953 27.3552 212.92C27.3552 224.823 27.0875 226.161 25.08 225.76C23.0726 225.358 22.8049 224.021 23.0726 218.27C23.4741 211.85 23.3402 211.315 20.6636 211.315C18.3885 211.315 17.8532 210.78 18.6562 208.908C19.1915 207.704 20.1283 204.628 20.9313 202.221C22.2696 197.54 22.1358 197.54 25.2139 198.743ZM197.186 202.889C198.123 205.698 199.193 208.774 199.461 209.577C199.996 210.647 199.059 211.315 197.32 211.315C194.643 211.315 194.509 211.85 194.911 218.27C195.312 224.69 195.044 225.358 192.368 225.76C189.424 226.161 189.29 225.893 189.29 213.455C189.29 202.756 189.691 200.482 191.699 199.412C195.178 197.406 195.446 197.54 197.186 202.889ZM17.4517 205.564C16.3811 207.57 15.4443 208.908 15.3104 208.373C15.3104 206.768 18.3885 200.616 18.9238 201.151C19.3253 201.418 18.6562 203.424 17.4517 205.564ZM201.201 204.896C202.004 207.303 202.137 208.64 201.468 207.972C200.13 206.367 198.123 200.616 199.059 200.616C199.461 200.616 200.398 202.622 201.201 204.896ZM210.033 214.926C212.71 220.544 211.907 226.562 207.758 230.976C203.476 235.523 201.87 234.72 205.885 229.906C210.033 225.091 210.033 224.422 207.089 219.607C204.814 216.13 204.814 216.13 207.089 217.869C209.498 219.741 209.9 219.474 208.561 216.13C208.16 214.926 207.223 214.258 206.688 214.659C206.018 215.06 205.082 214.659 204.546 213.856C204.011 212.786 204.145 212.653 205.082 213.188C207.089 214.391 207.089 213.321 205.082 209.577C203.743 207.035 203.877 206.768 205.617 208.373C206.821 209.309 208.829 212.251 210.033 214.926ZM10.7602 212.92C8.21743 216.531 7.94977 219.875 10.3587 218.537C11.697 217.735 11.697 218.002 10.3587 219.474C5.67466 224.422 11.5632 233.918 19.593 234.185C22.9388 234.319 23.2064 234.587 20.9313 234.988C12.6338 236.593 5.00551 228.434 6.34381 219.607C7.14679 214.793 11.0279 207.838 12.2323 209.042C12.6338 209.443 11.9647 211.181 10.7602 212.92ZM21.7343 228.033C24.0094 230.708 24.0094 230.708 21.0651 228.301C17.7194 225.358 16.1134 220.142 17.5855 216.264C18.3885 213.856 18.79 214.525 19.0577 219.34C19.3253 222.683 20.5298 226.562 21.7343 228.033ZM200.264 222.951C199.996 224.556 198.524 226.963 196.918 228.301C194.108 230.708 194.108 230.708 196.383 227.364C197.587 225.626 198.658 221.613 198.792 218.671C198.925 214.258 199.059 213.856 199.862 216.665C200.398 218.537 200.531 221.346 200.264 222.951ZM17.1841 231.243C16.5149 232.046 12.6338 228.568 12.6338 227.231C12.6338 226.562 13.7045 227.097 15.0428 228.301C16.3811 229.638 17.3179 230.976 17.1841 231.243ZM204.011 229.371C203.074 230.441 201.87 231.377 201.201 231.377C200.531 231.377 201.067 230.307 202.405 228.969C205.082 226.027 206.554 226.428 204.011 229.371ZM200.933 234.854C200.531 235.255 199.327 235.389 198.39 234.988C197.32 234.587 197.721 234.185 199.193 234.185C200.665 234.052 201.468 234.453 200.933 234.854ZM20.396 240.204C15.8458 242.611 15.7119 243.414 19.7268 242.611C21.7343 242.21 21.3328 242.611 18.5224 243.949C16.2472 245.019 12.6338 247.961 10.6264 250.235C7.68211 253.846 7.14679 255.584 7.68211 259.329L8.48509 264.144L6.47764 260.399C4.60401 256.922 4.60401 256.119 7.54828 250.368C9.55573 246.356 11.4294 244.082 12.9015 244.216C14.2398 244.35 15.0428 243.815 14.9089 243.013C14.6413 241.541 20.2621 238.064 22.6711 238.198C23.4741 238.198 22.4034 239.134 20.396 240.204ZM200.799 240.873C210.167 245.286 215.387 257.724 209.9 262.138C208.16 263.743 208.026 263.475 209.498 260.399C211.639 255.718 207.892 249.298 200.531 245.019C196.784 242.745 196.249 242.076 198.658 242.745C201.334 243.28 200.933 242.879 197.32 240.873C191.163 237.262 193.572 237.262 200.799 240.873ZM51.4446 242.745C49.7048 244.751 45.1546 245.42 41.5412 243.949C37.2586 242.344 39.5337 240.739 46.2252 240.739C52.2476 240.739 52.9167 241.006 51.4446 242.745ZM96.1439 242.745C92.7981 245.286 85.7051 245.286 83.5638 242.745C82.0917 241.006 83.0285 240.739 90.3892 240.739C98.0175 240.739 98.5528 240.873 96.1439 242.745ZM134.419 242.745C132.278 245.286 126.39 245.286 122.91 242.745C120.635 241.006 121.036 240.873 128.263 240.739C135.088 240.739 135.891 241.006 134.419 242.745ZM178.583 242.076C178.583 243.949 172.561 245.152 168.546 244.216C162.925 242.745 164.799 240.739 171.892 240.739C175.639 240.739 178.583 241.274 178.583 242.076ZM210.301 241.541C209.9 241.943 208.695 242.076 207.758 241.675C206.688 241.274 207.089 240.873 208.561 240.873C210.033 240.739 210.836 241.14 210.301 241.541ZM75.534 245.42C76.4708 246.49 77.8091 247.025 78.4783 246.624C79.2813 246.089 79.5489 246.891 79.0136 248.496C78.4783 250.101 78.746 252.776 79.6828 254.381C81.1549 257.189 81.1549 257.323 79.1474 255.584C77.8091 254.648 76.8723 252.642 76.8723 251.305C76.8723 249.833 75.6679 247.56 74.1957 246.089C72.7236 244.617 72.0544 243.414 72.7236 243.414C73.3927 243.414 74.5972 244.35 75.534 245.42ZM144.055 246.089C142.449 247.694 141.111 249.566 141.111 250.502C141.111 251.438 140.174 253.445 138.97 254.916C137.096 257.323 136.962 257.323 138.434 254.381C139.237 252.776 139.505 249.967 138.97 248.362C138.568 246.757 138.568 245.821 139.103 246.356C139.639 246.891 140.977 246.49 142.048 245.42C143.118 244.35 144.59 243.414 145.527 243.414C146.33 243.414 145.661 244.617 144.055 246.089ZM164.933 246.891C168.68 249.298 169.215 256.788 165.602 256.654C164.13 256.654 163.862 256.253 164.933 255.852C166.94 255.049 167.074 251.171 164.933 249.031C162.658 246.757 151.55 247.025 148.338 249.432C146.999 250.502 145.26 251.305 144.457 251.305C143.787 251.305 145.393 249.967 148.204 248.229C151.416 246.222 152.754 244.751 151.55 244.35C150.613 243.949 152.486 244.082 155.832 244.35C159.178 244.751 163.193 245.955 164.933 246.891ZM23.6079 246.891C21.8681 248.095 19.9945 250.368 19.3253 251.973C18.3885 254.247 18.1209 254.247 18.1209 252.375C17.987 249.833 22.5373 244.751 24.9462 244.751C25.883 244.751 25.2139 245.687 23.6079 246.891ZM38.4631 251.438L42.7456 252.776L38.0616 252.107C33.6452 251.438 30.0318 248.496 30.0318 245.554C30.0318 244.751 30.9686 245.42 32.0392 247.159C33.2437 248.763 36.0541 250.636 38.4631 251.438ZM42.0765 247.827C43.4148 248.362 43.1471 248.63 41.2735 248.63C39.6675 248.763 37.9277 247.827 37.5262 246.624C36.8571 244.885 37.1248 244.751 38.3292 245.687C39.266 246.49 41.0058 247.426 42.0765 247.827ZM179.922 247.426C176.71 249.432 175.104 248.897 178.048 246.891C179.386 245.821 180.858 245.286 181.26 245.554C181.528 245.955 180.992 246.757 179.922 247.426ZM197.052 247.426C198.658 249.031 199.996 251.171 199.996 252.508C199.996 253.979 199.059 253.311 197.453 250.636C195.981 248.229 194.108 246.089 193.037 245.687C192.1 245.286 191.966 244.885 192.769 244.885C193.438 244.751 195.446 245.955 197.052 247.426ZM187.148 247.961C186.212 250.368 179.386 253.311 176.977 252.375C176.041 251.973 176.576 251.572 178.048 251.572C179.654 251.438 182.331 250.235 184.07 248.763C187.951 245.687 188.085 245.554 187.148 247.961ZM88.9171 249.566C88.9171 249.833 87.7126 250.101 86.2404 250.101C84.7683 250.101 83.5638 249.566 83.5638 248.897C83.5638 248.229 84.7683 247.961 86.2404 248.362C87.7126 248.763 88.9171 249.298 88.9171 249.566ZM192.502 248.63C192.903 249.298 192.368 250.502 191.431 251.305C189.825 252.642 189.691 252.375 190.227 250.235C191.03 247.159 191.431 246.891 192.502 248.63ZM97.616 250.101C97.2145 250.77 95.7424 251.438 94.5379 251.438C92.5305 251.438 92.5305 251.171 94.2703 250.101C96.9469 248.362 98.6867 248.362 97.616 250.101ZM123.713 250.101C125.453 251.171 125.453 251.438 123.445 251.438C122.241 251.438 120.769 250.77 120.367 250.101C119.297 248.362 121.036 248.362 123.713 250.101ZM133.483 249.7C132.546 249.967 130.94 249.967 130.137 249.7C129.2 249.298 129.869 249.031 131.743 249.031C133.616 249.031 134.285 249.298 133.483 249.7ZM14.5075 251.706C13.9721 252.508 13.0353 255.049 12.5 257.323C11.5632 261.335 11.5632 261.335 11.4294 257.858C11.2955 253.578 12.5 250.101 14.2398 250.101C14.9089 250.101 15.0428 250.77 14.5075 251.706ZM206.554 257.992C206.42 261.202 206.286 261.202 205.483 257.323C204.948 255.049 204.011 252.375 203.476 251.305C202.94 250.235 203.476 250.636 204.546 251.973C205.751 253.445 206.688 256.119 206.554 257.992ZM106.449 258.527C104.977 259.864 104.843 259.463 105.646 256.922C106.315 254.782 106.181 254.113 105.111 254.648C104.174 255.317 104.04 254.782 104.575 253.311C105.378 251.171 105.646 251.305 106.716 253.846C107.787 255.986 107.653 257.323 106.449 258.527ZM113.542 253.578C114.077 254.782 113.809 255.317 112.873 254.648C111.802 254.113 111.668 254.782 112.337 256.922C113.14 259.463 113.006 259.73 111.668 258.661C110.731 257.724 110.464 255.852 110.999 254.247C112.07 250.903 112.471 250.77 113.542 253.578ZM96.5454 254.247C94.6718 255.317 93.6011 255.317 92.5305 254.247C91.4598 253.177 92.129 252.776 95.0732 252.776C98.419 252.91 98.6867 253.043 96.5454 254.247ZM125.185 253.979C124.114 254.648 122.508 254.916 121.438 254.514C118.627 253.445 119.43 252.776 123.445 252.776C126.122 252.776 126.523 253.177 125.185 253.979ZM38.0616 255.317C38.0616 256.788 35.5188 258.527 33.2437 258.928C32.4407 259.062 31.7715 258.393 31.7715 257.323C31.7715 255.986 32.3069 255.852 33.6452 257.056C35.1173 258.126 35.2511 257.992 34.582 256.253C34.0467 254.782 34.4482 254.113 35.9203 254.113C37.1248 254.113 38.0616 254.648 38.0616 255.317ZM87.7126 257.323C88.7832 256.654 89.0509 256.922 88.3817 257.992C87.7126 259.062 88.1141 259.463 89.5862 259.196C90.9245 258.928 92.2628 259.597 92.5305 260.399C93.4673 262.807 85.036 262.539 80.8872 259.998C77.5415 257.992 77.5415 257.992 80.6196 258.928C83.43 259.597 83.6977 259.329 82.8947 256.521C82.0917 253.578 82.2255 253.578 84.0992 255.986C85.1698 257.323 86.7758 257.992 87.7126 257.323ZM134.687 257.056C132.144 259.597 132.813 261.068 135.624 259.463C139.639 257.457 140.843 257.992 137.096 260.132C133.215 262.405 127.862 262.673 125.051 260.8C123.981 260.132 123.713 259.463 124.382 259.329C130.806 258.794 132.278 258.259 133.349 256.253C134.018 254.916 134.955 254.247 135.49 254.648C135.891 255.183 135.49 256.253 134.687 257.056ZM185.676 255.049C186.881 256.253 183.937 259.597 182.464 258.661C180.591 257.591 180.992 254.113 183 254.113C184.07 254.113 185.275 254.514 185.676 255.049Z" fill="url(#paint0_linear_120_43)"/>
<path d="M34.0469 135.081V235.389L75.2666 235.523C97.8839 235.657 131.609 235.79 150.078 235.924L183.937 236.058V135.349V34.7735H108.992H34.0469V135.081ZM179.922 135.081V232.714H108.992H38.0618V135.081V37.4484H108.992H179.922V135.081Z" fill="url(#paint1_linear_120_43)"/>
<path d="M96.2783 71.8205C84.7689 74.3617 80.0849 78.5077 81.557 84.5262C82.4938 88.271 88.2485 94.9582 90.5236 94.9582C91.3266 94.9582 91.0589 93.8883 89.8545 92.5508C88.5162 91.2134 87.5793 88.5385 87.5793 86.5323C87.5793 78.909 96.6798 75.1641 118.762 73.6929L131.877 72.8905L127.059 76.7691C123.446 79.5777 119.029 87.2011 108.189 108.466C93.0664 138.425 86.7764 146.717 77.4082 149.793C71.9212 151.666 64.5605 150.596 62.0178 147.653C61.081 146.45 59.8765 142.705 59.3412 139.227L58.5382 133.075L58.2705 138.692C58.0029 146.45 60.0103 150.729 65.0959 153.805C73.7948 159.021 84.5012 155.945 93.7355 145.38C96.4121 142.304 102.167 133.343 106.182 125.719L113.676 111.676H126.39H139.104L138.97 115.956C138.836 118.363 138.836 120.37 139.104 120.37C139.907 120.37 145.126 111.275 145.126 109.804C145.126 108.868 140.71 108.333 131.208 108.333C123.446 108.333 116.888 107.931 116.487 107.263C115.416 105.39 127.327 82.3863 131.476 78.374C136.16 74.0942 145.662 71.6868 153.424 72.8905C159.714 73.9604 160.918 75.5654 161.454 82.9213L161.855 88.9397L164.933 84.125C168.279 78.7752 168.68 74.8966 166.272 72.4893C165.067 71.2856 155.699 70.8843 131.877 71.0181C113.676 71.1518 97.7504 71.4193 96.2783 71.8205Z" fill="url(#paint2_linear_120_43)"/>
<path d="M69.5121 125.318C61.3485 127.057 57.7351 129.865 60.8132 131.738C61.6162 132.139 62.1515 133.744 62.1515 135.215C62.1515 137.623 62.4191 137.623 65.2296 134.413C68.3077 130.668 79.8171 127.191 88.9175 127.057C91.4603 127.057 94.5384 126.388 95.609 125.719C97.6165 124.382 75.133 123.981 69.5121 125.318Z" fill="url(#paint3_linear_120_43)"/>
<path d="M108.992 125.719C108.992 126.388 111.267 127.057 114.077 127.057C126.256 127.057 130.672 139.227 123.445 153.137C118.761 162.098 110.865 165.842 96.8133 165.842C85.1701 165.842 84.5009 167.581 91.7277 181.624C95.2073 188.445 100.427 196.202 104.308 200.215C110.196 206.233 111.936 207.303 116.219 207.303C118.895 207.303 122.91 206.367 124.918 205.297C129.2 203.157 142.449 188.846 142.449 186.706C142.449 185.904 140.71 187.108 138.702 189.381C131.341 197.272 125.854 200.616 119.698 200.616C114.747 200.616 113.274 199.947 108.858 195.266C103.505 189.649 92.1292 171.593 93.1999 170.39C93.6014 170.122 97.7501 169.186 102.434 168.384C120.769 165.575 133.081 155.678 134.018 142.839C134.687 133.61 131.341 127.859 124.115 125.853C117.691 123.981 108.992 123.981 108.992 125.719Z" fill="url(#paint4_linear_120_43)"/>
<path d="M83.431 156.882C81.0221 157.818 78.2117 161.295 74.8659 167.715C61.3491 193.126 54.9252 203.157 50.9103 205.163C48.6352 206.367 47.6984 207.303 48.769 207.303C49.8397 207.303 52.7839 206.099 55.3267 204.494C58.1371 202.756 61.3491 201.953 63.758 202.221C66.5684 202.756 67.5053 202.355 67.5053 200.482C67.5053 199.278 72.3231 188.579 78.2117 176.676C84.1002 164.773 88.3828 155.143 87.8474 155.277C87.3121 155.41 85.3047 156.079 83.431 156.882Z" fill="url(#paint5_linear_120_43)"/>
<defs>
<linearGradient id="paint0_linear_120_43" x1="220.412" y1="-3.71996" x2="12.0901" y2="261.332" gradientUnits="userSpaceOnUse">
<stop stop-color="#CFA245"/>
<stop offset="0.25" stop-color="#B5832A"/>
<stop offset="0.469405" stop-color="#E8C875"/>
<stop offset="0.753335" stop-color="#8F621B"/>
<stop offset="1" stop-color="#E4CC8F"/>
</linearGradient>
<linearGradient id="paint1_linear_120_43" x1="184.903" y1="31.9864" x2="26.0743" y2="216.591" gradientUnits="userSpaceOnUse">
<stop stop-color="#CFA245"/>
<stop offset="0.25" stop-color="#B5832A"/>
<stop offset="0.469405" stop-color="#E8C875"/>
<stop offset="0.753335" stop-color="#8F621B"/>
<stop offset="1" stop-color="#E4CC8F"/>
</linearGradient>
<linearGradient id="paint2_linear_120_43" x1="168.516" y1="69.8124" x2="114.139" y2="178.828" gradientUnits="userSpaceOnUse">
<stop stop-color="#CFA245"/>
<stop offset="0.25" stop-color="#B5832A"/>
<stop offset="0.469405" stop-color="#E8C875"/>
<stop offset="0.753335" stop-color="#8F621B"/>
<stop offset="1" stop-color="#E4CC8F"/>
</linearGradient>
<linearGradient id="paint3_linear_120_43" x1="95.9676" y1="124.321" x2="91.7799" y2="143.246" gradientUnits="userSpaceOnUse">
<stop stop-color="#CFA245"/>
<stop offset="0.25" stop-color="#B5832A"/>
<stop offset="0.469405" stop-color="#E8C875"/>
<stop offset="0.753335" stop-color="#8F621B"/>
<stop offset="1" stop-color="#E4CC8F"/>
</linearGradient>
<linearGradient id="paint4_linear_120_43" x1="142.807" y1="123.284" x2="76.7346" y2="192.251" gradientUnits="userSpaceOnUse">
<stop stop-color="#CFA245"/>
<stop offset="0.25" stop-color="#B5832A"/>
<stop offset="0.469405" stop-color="#E8C875"/>
<stop offset="0.753335" stop-color="#8F621B"/>
<stop offset="1" stop-color="#E4CC8F"/>
</linearGradient>
<linearGradient id="paint5_linear_120_43" x1="88.1476" y1="154.555" x2="47.2311" y2="203.121" gradientUnits="userSpaceOnUse">
<stop stop-color="#CFA245"/>
<stop offset="0.25" stop-color="#B5832A"/>
<stop offset="0.469405" stop-color="#E8C875"/>
<stop offset="0.753335" stop-color="#8F621B"/>
<stop offset="1" stop-color="#E4CC8F"/>
</linearGradient>
</defs>
</svg>
